<?xml version="1.0" encoding="utf-8"?>
<!-- Svg Vector Icons : http://www.onlinewebfonts.com/icon -->
<!DOCTYPE svg PUBLIC "-//W3C//DTD SVG 1.1//EN" "http://www.w3.org/Graphics/SVG/1.1/DTD/svg11.dtd">
<svg version="1.1" xmlns="http://www.w3.org/2000/svg" xmlns:xlink="http://www.w3.org/1999/xlink" x="0px" y="0px" viewBox="0 0 1000 1000" enable-background="new 0 0 1000 1000" xml:space="preserve">
<metadata> Svg Vector Icons : http://www.onlinewebfonts.com/icon </metadata>
<g><g transform="translate(0.000000,512.000000) scale(0.100000,-0.100000)"><path d="M6204,4993.8c-643.9-88.2-1216.9-346.9-1713.3-772.3c-88.2-76.7-201.2-187.8-251.1-243.4l-88.2-105.4l-128.4,65.2c-159.1,80.5-419.7,168.7-636.3,214.6c-231.9,49.8-841.3,51.7-1073.2,1.9c-530.9-113.1-981.2-350.7-1364.5-720.6c-417.8-398.6-682.2-875.8-804.9-1445c-55.6-262.6-59.4-780-7.7-1038.7c247.2-1243.8,1226.5-2133,2474.1-2251.8c116.9-9.6,224.2-19.2,239.6-19.2c17.2,0,40.2-28.8,53.7-65.1c61.3-166.8,276-444.6,456.1-588.4c528.9-419.7,1236.1-477.2,1828.3-145.6c180.2,101.6,498.3,412,592.2,578.8l65.1,116.9l164.8-38.3c132.2-28.8,249.1-36.4,596-38.3c377.5-1.9,458,3.8,645.8,42.1c1021.5,207,1876.2,866.2,2324.6,1795.7c532.8,1100,398.6,2409-343.1,3392.1c-197.4,264.5-565.4,603.7-847.1,781.9c-293.2,185.9-757,375.6-1090.5,442.7C6943.7,5024.5,6541.3,5039.8,6204,4993.8z M6884.3,4601c914.1-86.2,1724.8-594.1,2203.9-1383.7c504-833.7,536.6-1904.9,84.3-2775C8559.3-738.2,7213.9-1343.8,5929.9-1020c-203.1,49.8-293.2,47.9-343.1-9.6c-15.3-17.3-65.1-109.2-111.1-205.1c-115-241.5-322-450.4-555.8-561.5c-208.9-97.7-331.5-126.5-546.2-124.6c-316.2,1.9-586.4,109.2-812.6,323.9c-155.2,145.6-230,254.9-316.2,461.9c-88.2,212.7-124.6,235.7-404.4,235.7c-381.4,0-714.8,82.4-1063.6,260.6c-356.5,182.1-653.5,446.5-873.9,776.2C625.2,553.4,504.5,952.1,506.4,1448.4c1.9,663.1,251,1243.8,732.1,1701.8c730.2,695.7,1793.8,839.4,2711.8,368c254.9-132.2,297-134.2,402.5-23c475.3,502.1,626.7,624.8,998.5,808.7c352.6,174.4,626.7,256.8,998.5,295.1C6568.1,4622,6648.6,4622,6884.3,4601z"/><path d="M5121.2,3366.8c-30.7-15.3-438.9-410.1-904.6-877.7c-818.3-820.2-849-852.8-849-921.8c0-93.9,42.2-172.5,105.4-201.2c26.8-13.4,105.4-23,172.5-23h124.6V605.2c0-803,1.9-822.1,105.4-868.1c65.2-30.7,946.7-32.6,1011.9-1.9c103.5,46,109.2,82.4,109.2,666.9v538.5h201.2h199.3l5.8-557.7l5.7-557.7l63.2-55.6l61.3-55.6h490.6h490.6l55.6,55.6l55.6,55.6v758.9V1343h124.6c155.2,0,231.9,36.4,270.2,128.4c23,49.8,24.9,80.5,9.6,126.5c-15.3,42.2-299,339.2-877.7,918C5240,3428.1,5243.8,3424.3,5121.2,3366.8z M6307.5,1711c-82.4-65.2-84.3-86.2-84.3-854.7V116.5h-201.2h-201.2v517.4c0,573-7.6,624.8-113.1,678.4c-47.9,24.9-136.1,30.7-507.9,30.7c-308.6,0-465.7-7.7-500.2-23c-99.7-44.1-105.4-82.4-105.4-666.9V116.5h-210.8h-210.8v758.9v758.9l-59.4,57.5l-59.4,59.4l573,573l571.1,571.1l574.9-574.9C6342,1751.2,6347.7,1743.5,6307.5,1711z"/><path d="M2735.2-2365.3c-224.2-63.2-412-222.3-519.4-440.8c-61.3-126.5-65.2-143.7-65.2-345c0-197.4,3.8-218.5,61.3-339.2c84.3-178.2,208.9-306.6,383.3-392.9c124.6-61.3,164.8-70.9,310.5-78.6c207-9.6,329.6,23,496.4,128.4c136.1,90.1,270.2,258.7,323.9,410.1c23,69,34.5,155.3,34.5,281.7c0,164.8-5.7,193.5-61.3,312.4c-84.3,176.3-228.1,323.9-400.5,408.2c-116.9,59.4-162.9,70.9-299,76.7C2894.3-2338.5,2806.1-2346.1,2735.2-2365.3z M3074.4-2767.8c72.8-21.1,118.8-51.7,174.4-116.9c187.8-210.8,130.3-507.9-120.7-630.5c-90.1-46-122.6-51.8-212.7-42.2c-201.2,21.1-345,164.8-366,366.1c-19.2,195.4,116.9,389,304.7,433.1C2947.9-2735.2,2969-2737.1,3074.4-2767.8z"/><path d="M943.4-3588c-126.5-42.2-189.7-82.4-276-176.3c-118.8-130.3-161-237.7-161-412c0-176.3,42.2-285.6,168.6-419.7c122.7-132.2,245.3-182.1,440.8-184c130.3,0,170.6,7.7,262.6,53.7c118.8,57.5,220.4,159.1,287.5,285.5c36.4,69,44.1,111.2,44.1,264.5c0,203.1-28.7,281.7-155.2,421.6C1414.8-3601.4,1136.9-3524.7,943.4-3588z M1192.5-3992.4c67.1-28.8,124.6-113,124.6-184s-57.5-155.2-128.4-184C997-4440.8,828.4-4207,962.5-4044.1c42.2,49.8,67.1,61.3,149.5,76.6C1119.7-3967.4,1156.1-3977,1192.5-3992.4z"/></g></g>
</svg>